<?xml version="1.0" encoding="utf-8"?>
<!-- Generator: Adobe Illustrator 14.0.0, SVG Export Plug-In  -->
<!DOCTYPE svg PUBLIC "-//W3C//DTD SVG 1.1//EN" "http://www.w3.org/Graphics/SVG/1.1/DTD/svg11.dtd" [
	<!ENTITY ns_flows "http://ns.adobe.com/Flows/1.0/">
]>
<svg version="1.1"
	 xmlns="http://www.w3.org/2000/svg" xmlns:xlink="http://www.w3.org/1999/xlink" xmlns:a="http://ns.adobe.com/AdobeSVGViewerExtensions/3.0/"
	 x="0px" y="0px" width="32px" height="32px" viewBox="0 0 32 32" enable-background="new 0 0 32 32" xml:space="preserve">
<defs>
</defs>
<g id="lil_black_man_1_">
	<g>
		<path fill="#ED9E21" d="M32.32,18.076c-1.375,0.312-3.627-1.063-3.627-1.063L28.256,17.2c-3.879-1.188-4.629-0.813-4.629-0.813
			c-5.566-1.938-8.131-1.938-8.131-1.938l-1.039-0.438c-0.171-1.338-0.371-2.657-0.587-3.565l0.438-0.813l3.941,0.688l0.25-1.063
			l-3.627-1.251c0,0-0.501-2.439-3.253-1.313c0,0-1.688-1.376-2.063,1.063c0,0-0.375,2.689,2.001,1.626l0.438,0.813l-0.376,2.376
			c0,0-1.938-1-3.002-0.875c0,0-0.25-0.938-2.814-1.501L5.676,9.444c0,0,2.314,0.688,2.188-0.438l0.563-1.063L7.802,7.568
			l0.626-0.313l-0.188-0.75l0.751-0.376l-0.438-1.25c0,0,3.002,0.375,3.315-0.938L8.116,2.377c0,0-0.688-2.252-2.564-2.377
			c0,0-2.877,1.376-3.002,1.876c0,0-1.752,1.313,0.375,5.379c0,0,0.125,1.627-1.188,2.815c0,0-2.252,1.563-1.626,3.064
			c0,0,0.375,3.628,2.064,4.879c0,0,2.752,5.003,2.752,5.816c0,0,0.125,2.939-0.313,4.253c0,0,2.564,4.253,7.693,4.378
			c0,0,1.626-4.878,0.688-8.568c0,0-0.438-3.002-1.439-4.754c-1-1.751-0.062-0.188-0.062-0.188s2.189,1.438,3.503,0.188
			c0,0-0.047-0.565-0.129-1.418c3.108,0.915,7.698,0.481,7.698,0.481c1.438,0.062,2.189,0.688,2.189,0.688
			c0.25,0.813,1.125,1.188,1.125,1.188c0,0.813,0.625,0.626,0.625,0.626c-0.125,0.938,0.875,0.812,0.875,0.812
			c1.377,0.751,1.002-0.625,1.002-0.625c2.814-1.188,1.188-2.002,1.188-2.002s-2.502-0.438,0.125,0
			c2.627,0.438,2.752-0.375,2.752-0.375L32.32,18.076z"/>
	</g>
</g>
</svg>
