<?xml version="1.0" encoding="utf-8"?>
<!-- Generator: Adobe Illustrator 14.0.0, SVG Export Plug-In  -->
<!DOCTYPE svg PUBLIC "-//W3C//DTD SVG 1.1//EN" "http://www.w3.org/Graphics/SVG/1.1/DTD/svg11.dtd" [
	<!ENTITY ns_flows "http://ns.adobe.com/Flows/1.0/">
]>
<svg version="1.1"
	 xmlns="http://www.w3.org/2000/svg" xmlns:xlink="http://www.w3.org/1999/xlink" xmlns:a="http://ns.adobe.com/AdobeSVGViewerExtensions/3.0/"
	 x="0px" y="0px" width="18px" height="32px" viewBox="0 0 18 32" enable-background="new 0 0 18 32" xml:space="preserve">
<defs>
</defs>
<g id="lil_black_man_1_">
	<g>
		<path fill="#ED9E21" d="M18.248,10.32l0.25-1.063l-3.627-1.251c0,0-0.501-2.439-3.253-1.313c0,0-1.688-1.376-2.063,1.063
			c0,0-0.375,2.689,2.001,1.626l0.438,0.813l-0.376,2.376c0,0-1.938-1-3.002-0.875c0,0-0.25-0.938-2.814-1.501L5.676,9.444
			c0,0,2.314,0.688,2.188-0.438l0.563-1.063L7.802,7.568l0.626-0.313l-0.188-0.75l0.751-0.376l-0.438-1.25
			c0,0,3.002,0.375,3.315-0.938L8.116,2.377c0,0-0.688-2.252-2.564-2.377c0,0-2.877,1.376-3.002,1.876c0,0-1.752,1.313,0.375,5.379
			c0,0,0.125,1.627-1.188,2.815c0,0-2.252,1.563-1.626,3.064c0,0,0.375,3.628,2.064,4.879c0,0,2.752,5.003,2.752,5.816
			c0,0,0.125,2.939-0.313,4.253c0,0,2.564,4.253,7.693,4.378c0,0,1.626-4.878,0.688-8.568c0,0-0.438-3.002-1.439-4.754
			c-1-1.751-0.062-0.188-0.062-0.188s2.189,1.438,3.503,0.188c0,0-0.501-6.066-1.126-8.693l0.438-0.813L18.248,10.32z"/>
	</g>
</g>
</svg>
