<?xml version="1.0" encoding="utf-8"?>
<!-- Generator: Adobe Illustrator 14.0.0, SVG Export Plug-In  -->
<!DOCTYPE svg PUBLIC "-//W3C//DTD SVG 1.1//EN" "http://www.w3.org/Graphics/SVG/1.1/DTD/svg11.dtd" [
	<!ENTITY ns_flows "http://ns.adobe.com/Flows/1.0/">
]>
<svg version="1.1"
	 xmlns="http://www.w3.org/2000/svg" xmlns:xlink="http://www.w3.org/1999/xlink" xmlns:a="http://ns.adobe.com/AdobeSVGViewerExtensions/3.0/"
	 x="0px" y="0px" width="50px" height="50px" viewBox="-0.208 -0.178 50 50" enable-background="new -0.208 -0.178 50 50"
	 xml:space="preserve">
<defs>
</defs>
<circle fill="none" stroke="#F7B618" stroke-width="3" stroke-miterlimit="14" cx="24.757" cy="24.757" r="23.257"/>
<g id="wht_man_1_">
	<g>
		<path fill="#F7B618" d="M37.319,29.474l-2.067-0.871c-0.333-2.528-0.716-4.972-1.126-6.695l0.898-1.672l8.102,1.415l0.515-2.187
			l-7.459-2.572c0,0-1.028-5.016-6.687-2.701c0,0-3.473-2.83-4.244,2.187c0,0-0.771,5.53,4.116,3.342l0.899,1.673l-0.771,4.887
			c0,0-3.987-2.057-6.173-1.8c0,0-0.515-1.929-5.788-3.086l-0.258-1.543c0,0,4.758,1.414,4.501-0.9l1.157-2.186l-1.285-0.771
			l1.285-0.645l-0.385-1.543l1.543-0.772l-0.9-2.572c0,0,6.174,0.772,6.815-1.929l-7.716-3.215c0,0-1.415-4.63-5.272-4.887
			c0,0-5.916,2.829-6.173,3.859c0,0-3.601,2.7,0.772,11.06c0,0,0.256,3.343-2.445,5.788c0,0-4.629,3.215-3.344,6.301
			c0,0,0.772,7.46,4.245,10.033c0,0,3.672,3.887,3.951,7.592c0.48,6.365,18.15,5.102,17.897,3.357
			c-0.978-6.713-2.686-9.021-2.686-9.021s4.5,2.958,7.2,0.385c0,0-0.129-1.561-0.352-3.813c3.737,0.745,9.854,1.2,9.886-0.099
			c0.068-2.689,2.971-2.792,2.971-2.792C37.497,29.093,37.319,29.474,37.319,29.474z"/>
	</g>
</g>
</svg>
