<?xml version="1.0" encoding="utf-8"?>
<!-- Generator: Adobe Illustrator 14.0.0, SVG Export Plug-In  -->
<!DOCTYPE svg PUBLIC "-//W3C//DTD SVG 1.1//EN" "http://www.w3.org/Graphics/SVG/1.1/DTD/svg11.dtd" [
	<!ENTITY ns_flows "http://ns.adobe.com/Flows/1.0/">
]>
<svg version="1.1"
	 xmlns="http://www.w3.org/2000/svg" xmlns:xlink="http://www.w3.org/1999/xlink" xmlns:a="http://ns.adobe.com/AdobeSVGViewerExtensions/3.0/"
	 x="0px" y="0px" width="33px" height="33px" viewBox="-0.104 -0.134 33 33" enable-background="new -0.104 -0.134 33 33"
	 xml:space="preserve">
<defs>
</defs>
<circle fill="none" stroke="#F7B618" stroke-width="2" stroke-miterlimit="14" cx="16.568" cy="16.568" r="15.568"/>
<g id="wht_man_1_">
	<g>
		<path fill="#F7B618" d="M24.978,19.726l-1.385-0.583c-0.223-1.692-0.479-3.328-0.754-4.481l0.603-1.119l5.423,0.947l0.345-1.464
			l-4.993-1.722c0,0-0.688-3.358-4.477-1.808c0,0-2.325-1.894-2.84,1.464c0,0-0.517,3.702,2.755,2.237l0.602,1.12l-0.517,3.271
			c0,0-2.669-1.377-4.132-1.205c0,0-0.344-1.291-3.874-2.066l-0.173-1.033c0,0,3.186,0.947,3.014-0.603l0.774-1.463l-0.86-0.516
			l0.86-0.431l-0.258-1.033l1.033-0.517l-0.603-1.722c0,0,4.132,0.517,4.562-1.291l-5.165-2.152c0,0-0.947-3.1-3.529-3.271
			c0,0-3.96,1.894-4.132,2.583c0,0-2.411,1.807,0.517,7.403c0,0,0.172,2.238-1.636,3.874c0,0-3.099,2.152-2.238,4.218
			c0,0,0.517,4.994,2.841,6.716c0,0,2.458,2.602,2.645,5.082c0.321,4.261,12.149,3.415,11.98,2.247
			c-0.654-4.493-1.798-6.038-1.798-6.038s3.013,1.98,4.82,0.258c0,0-0.087-1.05-0.236-2.555c2.502,0.499,6.597,0.805,6.618-0.064
			c0.046-1.8,1.988-1.869,1.988-1.869C25.096,19.471,24.978,19.726,24.978,19.726z"/>
	</g>
</g>
</svg>
